<?xml version="1.0" standalone="no"?>
<!DOCTYPE svg PUBLIC "-//W3C//DTD SVG 20010904//EN"
 "http://www.w3.org/TR/2001/REC-SVG-20010904/DTD/svg10.dtd">
<svg version="1.0" xmlns="http://www.w3.org/2000/svg"
 width="162.000000pt" height="162.000000pt" viewBox="0 0 162.000000 162.000000"
 preserveAspectRatio="xMidYMid meet">
<metadata>
Created by potrace 1.11, written by Peter Selinger 2001-2013
</metadata>
<g transform="translate(0.000000,162.000000) scale(0.100000,-0.100000)"
fill="#000000" stroke="none">
<path d="M139 1392 c-49 -50 -55 -60 -46 -79 5 -13 16 -23 24 -23 7 0 13 -4
13 -8 0 -5 7 -17 16 -28 8 -10 12 -13 8 -5 -5 10 -3 12 5 7 9 -6 9 -11 1 -21
-8 -10 -8 -15 1 -21 8 -4 9 -3 5 4 -19 30 16 6 62 -43 29 -30 52 -53 52 -50 0
3 15 -11 33 -32 17 -20 47 -50 65 -66 17 -16 32 -36 32 -46 0 -14 2 -14 10 -1
7 11 10 11 10 2 0 -7 14 -26 32 -42 l32 -29 -85 -86 c-46 -48 -139 -141 -206
-207 -111 -110 -121 -123 -110 -142 6 -12 10 -25 9 -29 -1 -5 1 -6 6 -3 5 3
21 -7 35 -22 14 -15 32 -31 39 -37 7 -5 22 -17 33 -25 18 -13 19 -13 8 0 -9
12 -7 20 7 38 19 23 37 31 24 10 -5 -7 -3 -8 5 -4 7 5 10 15 7 23 -4 11 -2 13
9 10 8 -4 17 -1 21 5 4 7 3 8 -4 4 -20 -12 -13 6 9 25 12 10 25 16 30 13 5 -3
6 2 3 10 -4 10 -1 16 8 16 8 0 21 11 28 25 7 13 21 27 32 31 10 3 18 10 18 15
0 11 25 39 35 39 3 0 3 -5 -1 -12 -4 -7 -3 -8 4 -4 6 4 8 14 5 23 -4 11 -3 14
5 9 7 -4 12 -2 12 3 0 16 43 56 57 53 6 -1 15 3 19 9 4 8 3 9 -4 5 -7 -4 -12
-2 -12 3 0 10 14 15 33 12 5 -1 6 2 3 7 -3 5 6 23 21 41 24 29 27 30 44 15 11
-10 19 -12 24 -4 3 6 1 9 -6 8 -7 -2 -15 5 -17 16 -2 11 0 16 7 12 6 -4 19 -2
28 4 17 11 17 11 1 6 -10 -3 -18 -1 -18 4 0 6 6 10 14 10 8 0 17 7 20 16 3 8
10 12 16 9 5 -3 7 0 4 8 -3 8 2 20 11 27 13 11 -22 49 -255 281 -148 148 -271
269 -272 269 -2 0 -28 -26 -59 -58z"/>
<path d="M110 1261 c0 -6 4 -13 10 -16 6 -3 7 1 4 9 -7 18 -14 21 -14 7z"/>
<path d="M263 1104 c9 -11 15 -24 12 -27 -3 -4 -2 -5 2 -2 4 3 8 13 9 21 1 9
0 13 -3 10 -4 -3 -13 0 -22 6 -12 10 -12 7 2 -8z"/>
<path d="M316 1047 c3 -10 9 -15 12 -12 3 3 0 11 -7 18 -10 9 -11 8 -5 -6z"/>
<path d="M376 978 c3 -5 10 -6 15 -3 13 9 11 12 -6 12 -8 0 -12 -4 -9 -9z"/>
<path d="M411 947 c2 -1 13 -9 24 -17 19 -14 19 -14 6 3 -7 9 -18 17 -24 17
-6 0 -8 -1 -6 -3z"/>
<path d="M426 898 c3 -5 10 -6 15 -3 13 9 11 12 -6 12 -8 0 -12 -4 -9 -9z"/>
<path d="M616 773 c-6 -14 -5 -15 5 -6 7 7 10 15 7 18 -3 3 -9 -2 -12 -12z"/>
<path d="M590 742 c0 -5 7 -9 15 -9 8 0 12 4 9 9 -3 4 -9 8 -15 8 -5 0 -9 -4
-9 -8z"/>
<path d="M504 658 l-19 -23 23 19 c21 18 27 26 19 26 -2 0 -12 -10 -23 -22z"/>
<path d="M430 580 c0 -5 5 -10 10 -10 6 0 10 5 10 10 0 6 -4 10 -10 10 -5 0
-10 -4 -10 -10z"/>
<path d="M375 520 c-3 -6 1 -7 9 -4 18 7 21 14 7 14 -6 0 -13 -4 -16 -10z"/>
<path d="M310 461 c0 -6 4 -12 8 -15 5 -3 9 1 9 9 0 8 -4 15 -9 15 -4 0 -8 -4
-8 -9z"/>
<path d="M785 431 c-2 -4 -3 -33 -2 -65 2 -31 0 -59 -2 -62 -10 -9 -9 -34 0
-34 6 0 7 -4 4 -10 -3 -5 1 -10 10 -10 8 0 20 -10 26 -22 l10 -23 -5 23 c-2
12 0 22 5 22 11 0 30 -36 23 -43 -3 -3 -1 -8 5 -11 10 -7 7 25 -4 44 -10 17 7
11 20 -7 9 -13 14 -13 20 -3 5 9 4 11 -3 6 -7 -4 -12 -3 -12 2 0 5 17 9 38 10
26 1 33 -1 22 -8 -8 -5 -17 -7 -20 -5 -3 2 -6 -7 -6 -20 0 -13 4 -21 8 -19 5
3 6 9 3 14 -3 4 6 15 20 24 14 9 25 12 25 6 0 -5 5 -10 11 -10 5 0 8 3 6 8 -3
4 6 8 19 8 13 1 22 -2 19 -6 -3 -5 9 -3 26 3 25 9 33 9 36 -1 3 -6 10 -9 16
-5 19 12 47 14 47 3 0 -6 8 -10 18 -10 14 0 15 2 2 10 -10 6 -5 9 18 8 18 -1
32 -6 32 -12 0 -8 2 -8 8 0 8 12 62 14 62 2 0 -4 5 -8 11 -8 5 0 8 3 6 8 -3 4
6 8 19 8 13 1 22 -2 19 -6 -3 -5 9 -3 26 3 25 9 33 9 36 -1 3 -6 10 -9 16 -5
18 11 60 15 53 5 -3 -5 1 -9 9 -9 8 0 12 4 9 9 -3 4 4 8 14 8 17 0 21 8 24 48
1 26 1 68 -2 93 l-5 46 -368 0 c-202 0 -369 -3 -372 -6z"/>
<path d="M240 380 c-9 -6 -10 -10 -3 -10 6 0 15 5 18 10 8 12 4 12 -15 0z"/>
<path d="M166 362 c-3 -5 1 -9 9 -9 8 0 12 4 9 9 -3 4 -7 8 -9 8 -2 0 -6 -4
-9 -8z"/>
<path d="M1055 229 c-11 -16 -1 -19 13 -3 7 8 8 14 3 14 -5 0 -13 -5 -16 -11z"/>
<path d="M1130 229 c0 -5 -4 -8 -9 -4 -5 3 -12 1 -15 -4 -4 -5 2 -8 11 -7 15
3 33 26 19 26 -3 0 -6 -5 -6 -11z"/>
<path d="M1197 233 c-4 -3 -7 -11 -7 -16 0 -6 3 -7 7 -4 3 4 13 1 22 -6 14
-11 15 -10 1 8 -8 11 -15 21 -16 23 0 1 -4 -1 -7 -5z"/>
<path d="M1241 224 c0 -11 3 -14 6 -6 3 7 2 16 -1 19 -3 4 -6 -2 -5 -13z"/>
<path d="M1375 229 c-11 -16 -1 -19 13 -3 7 8 8 14 3 14 -5 0 -13 -5 -16 -11z"/>
</g>
</svg>
